HIERARCHY
ROOT Hips
{
	OFFSET 0.000000 0.000000 0.000000
	CHANNELS 6 Xposition Yposition Zposition Zrotation Yrotation Xrotation 
	JOINT LowerBack
	{
		OFFSET 0.000000 0.000000 0.000000
		CHANNELS 3 Zrotation Yrotation Xrotation
		JOINT Spine
		{
			OFFSET 0.028270 2.035590 -0.193380
			CHANNELS 3 Zrotation Yrotation Xrotation
			JOINT Spine1
			{
				OFFSET 0.056720 2.048850 -0.042750
				CHANNELS 3 Zrotation Yrotation Xrotation
				JOINT Neck
				{
					OFFSET 0.000000 0.000000 0.000000
					CHANNELS 3 Zrotation Yrotation Xrotation
					JOINT Neck1
					{
						OFFSET -0.054170 1.746240 0.172020
						CHANNELS 3 Zrotation Yrotation Xrotation
						JOINT Head
						{
							OFFSET 0.104070 1.761360 -0.123970
							CHANNELS 3 Zrotation Yrotation Xrotation
							End Site
							{
								OFFSET 0.000000 0.000000 0.000000
							}
						}
					}
				}
				JOINT LeftShoulder
				{
					OFFSET 0.000000 0.000000 0.000000
					CHANNELS 3 Zrotation Yrotation Xrotation
					JOINT LeftArm
					{
						OFFSET 3.362410 1.200890 -0.311210
						CHANNELS 3 Zrotation Yrotation Xrotation
						JOINT LeftForeArm
						{
							OFFSET 4.983000 -0.000000 -0.000000
							CHANNELS 3 Zrotation Yrotation Xrotation
							JOINT LeftHand
							{
								OFFSET 3.483560 -0.000000 -0.000000
								CHANNELS 3 Zrotation Yrotation Xrotation
								JOINT LeftFingerBase
								{
									OFFSET 0.000000 0.000000 0.000000
									CHANNELS 3 Zrotation Yrotation Xrotation
									JOINT LeftHandIndex1
									{
										OFFSET 0.715260 -0.000000 -0.000000
										CHANNELS 3 Zrotation Yrotation Xrotation
										End Site
										{
											OFFSET 0.000000 0.000000 0.000000
										}
									}
								}
								JOINT LThumb
								{
									OFFSET 0.000000 0.000000 0.000000
									CHANNELS 3 Zrotation Yrotation Xrotation
									End Site
									{
										OFFSET 0.000000 0.000000 0.000000
									}
								}
							}
						}
					}
				}
				JOINT RightShoulder
				{
					OFFSET 0.000000 0.000000 0.000000
					CHANNELS 3 Zrotation Yrotation Xrotation
					JOINT RightArm
					{
						OFFSET -3.136600 1.374050 -0.404650
						CHANNELS 3 Zrotation Yrotation Xrotation
						JOINT RightForeArm
						{
							OFFSET -5.241900 -0.000000 -0.000000
							CHANNELS 3 Zrotation Yrotation Xrotation
							JOINT RightHand
							{
								OFFSET -3.444170 -0.000000 -0.000000
								CHANNELS 3 Zrotation Yrotation Xrotation
								JOINT RightFingerBase
								{
									OFFSET 0.000000 0.000000 0.000000
									CHANNELS 3 Zrotation Yrotation Xrotation
									JOINT RightHandIndex1
									{
										OFFSET -0.622530 -0.000000 -0.000000
										CHANNELS 3 Zrotation Yrotation Xrotation
										End Site
										{
											OFFSET 0.000000 0.000000 0.000000
										}
									}
								}
								JOINT RThumb
								{
									OFFSET 0.000000 0.000000 0.000000
									CHANNELS 3 Zrotation Yrotation Xrotation
									End Site
									{
										OFFSET 0.000000 0.000000 0.000000
									}
								}
							}
						}
					}
				}
			}
		}
	}
}
}
MOTION
Frames: 17
Frame Time: 0.008333
-1.663051 17.069093 -0.920528 176.443975 83.309173 177.106310 4.253659 -4.760979 -3.093109 0.538536 -5.180744 -2.853835 -5.502479 -5.124011 2.343841 8.251220 -20.006660 -10.271896 -2.920223 -0.197013 -0.645291 0.000000 0.000000 0.000000 3.185332 11.921475 -0.272132 -46.156879 -6.602288 4.149666 -0.880794 -71.164645 -0.020011 4.906431 -0.009040 -0.010691 -0.117330 0.269387 0.000000 0.000000 0.000000 0.000000 0.000000 0.000000 0.000000 15.533094 -18.099429 0.165185 71.459699 -18.160935 -9.954125 4.387667 21.253805 0.002240 3.817308 0.789941 0.026003 0.107126 -0.002413 -0.000000 0.000000 0.000000 0.000000 0.000000 0.000000 0.000000 
-1.495375 17.073649 -0.922180 179.578021 82.870106 -179.952734 4.600788 -4.671609 -2.950570 0.597250 -5.112308 -2.852587 -5.522238 -5.055054 2.281000 8.276566 -19.894861 -10.270968 -2.944531 -0.199210 -0.646130 0.000000 0.000000 0.000000 3.164301 11.899155 -0.325948 -47.106036 -6.183042 4.489549 -0.881175 -71.537305 -0.019636 4.855944 -0.049326 -0.012282 -0.116012 0.268904 0.000000 0.000000 0.000000 0.000000 0.000000 0.000000 0.000000 15.562834 -17.911506 0.191813 71.218807 -17.664745 -9.737416 4.369952 21.185043 0.002350 3.571219 0.809415 0.024908 0.108138 -0.003339 -0.000000 0.000000 0.000000 0.000000 0.000000 0.000000 0.000000 
-1.330557 17.077463 -0.924160 -177.667722 82.381850 -177.394384 4.927985 -4.579511 -2.786956 0.650774 -5.038528 -2.848284 -5.544137 -4.981146 2.215195 8.316371 -19.755119 -10.268795 -2.967035 -0.201199 -0.646779 0.000000 0.000000 0.000000 3.150067 11.874602 -0.375986 -48.122110 -5.768704 4.842425 -0.884887 -71.816264 -0.019343 4.824873 -0.084476 -0.013674 -0.114978 0.268156 0.000000 0.000000 0.000000 0.000000 0.000000 0.000000 0.000000 15.590778 -17.695511 0.223002 71.015195 -17.113074 -9.526798 4.349498 21.105118 0.002458 3.310779 0.828431 0.023613 0.109098 -0.004426 -0.000000 0.000000 0.000000 0.000000 0.000000 0.000000 0.000000 
-1.168592 17.080465 -0.926209 -175.308186 81.845053 -175.227588 5.229574 -4.485937 -2.610237 0.697870 -4.960494 -2.842476 -5.569399 -4.903341 2.144906 8.367866 -19.578483 -10.261185 -2.989323 -0.203180 -0.646051 0.000000 0.000000 0.000000 3.136817 11.840662 -0.420922 -49.188168 -5.346816 5.205799 -0.891454 -72.009234 -0.019109 4.810270 -0.113310 -0.014867 -0.114177 0.267025 0.000000 0.000000 0.000000 0.000000 0.000000 0.000000 0.000000 15.618639 -17.442177 0.258103 70.852381 -16.521375 -9.346916 4.327046 21.022943 0.002545 3.047436 0.837891 0.021918 0.109957 -0.005667 -0.000000 0.000000 0.000000 0.000000 0.000000 0.000000 0.000000 
-1.009380 17.082642 -0.928151 -173.344790 81.261335 -173.446415 5.499011 -4.391717 -2.428122 0.737509 -4.878857 -2.835387 -5.597849 -4.822221 2.073746 8.429559 -19.373236 -10.249723 -3.010879 -0.205087 -0.644366 0.000000 0.000000 0.000000 3.116988 11.810947 -0.460505 -50.290165 -4.934458 5.586906 -0.901074 -72.108562 -0.018916 4.809336 -0.136972 -0.015760 -0.113608 0.265465 0.000000 0.000000 0.000000 0.000000 0.000000 0.000000 0.000000 15.647625 -17.160921 0.294777 70.721716 -15.882441 -9.166045 4.302512 20.933054 0.002619 2.777024 0.844122 0.020124 0.110746 -0.007041 -0.000000 0.000000 0.000000 0.000000 0.000000 0.000000 0.000000 
-0.852852 17.084126 -0.929830 -171.765035 80.633502 -172.032827 5.731153 -4.297440 -2.248260 0.768740 -4.794200 -2.827817 -5.629948 -4.738293 2.003249 8.498851 -19.142115 -10.233804 -3.032398 -0.206995 -0.641544 0.000000 0.000000 0.000000 3.083235 11.789634 -0.494302 -51.414055 -4.534575 5.987551 -0.913873 -72.112070 -0.018731 4.817915 -0.157636 -0.016556 -0.113227 0.263402 0.000000 0.000000 0.000000 0.000000 0.000000 0.000000 0.000000 15.680515 -16.854834 0.331209 70.616884 -15.197465 -8.979962 4.276180 20.835527 0.002680 2.501352 0.848419 0.018229 0.111474 -0.008547 -0.000000 0.000000 0.000000 0.000000 0.000000 0.000000 0.000000 
-0.698867 17.085143 -0.931215 -170.543260 79.964200 -170.956155 5.922841 -4.203247 -2.077643 0.790869 -4.706826 -2.820946 -5.666452 -4.651805 1.933317 8.571821 -18.883126 -10.210858 -3.055306 -0.209065 -0.636865 0.000000 0.000000 0.000000 3.029016 11.773312 -0.521765 -52.547747 -4.140120 6.404215 -0.929989 -72.020212 -0.018517 4.831076 -0.178193 -0.017350 -0.112964 0.260747 -0.000000 0.000000 0.000000 0.000000 0.000000 0.000000 0.000000 15.719649 -16.521796 0.366200 70.533641 -14.473710 -8.806588 4.248721 20.733745 0.002726 2.227312 0.849657 0.016234 0.112134 -0.010213 -0.000000 0.000000 0.000000 0.000000 0.000000 0.000000 0.000000 
-0.547367 17.086015 -0.932291 -169.648289 79.255954 -170.182077 6.071269 -4.109331 -1.921416 0.803446 -4.617062 -2.815276 -5.707342 -4.563052 1.865397 8.645491 -18.600707 -10.180723 -3.080132 -0.211349 -0.630288 0.000000 0.000000 0.000000 2.948840 11.764707 -0.542750 -53.683755 -3.753296 6.834467 -0.950005 -71.824907 -0.018243 4.844179 -0.203084 -0.018346 -0.112758 0.257457 0.000000 0.000000 0.000000 0.000000 0.000000 0.000000 0.000000 15.767093 -16.166721 0.398223 70.463849 -13.710649 -8.647328 4.220399 20.627523 0.002766 1.955728 0.851412 0.014240 0.112750 -0.012061 -0.000000 0.000000 0.000000 0.000000 0.000000 0.000000 0.000000 
-0.398324 17.087084 -0.933157 -169.049282 78.510601 -169.678147 6.173085 -4.015607 -1.781857 0.806068 -4.524814 -2.810115 -5.751777 -4.471908 1.803645 8.718781 -18.308748 -10.146709 -3.106165 -0.213742 -0.622754 0.000000 0.000000 0.000000 2.839990 11.776205 -0.557800 -54.819968 -3.392545 7.279456 -0.975033 -71.505382 -0.017885 4.854035 -0.237215 -0.019743 -0.112600 0.253528 -0.000000 0.000000 0.000000 0.000000 0.000000 0.000000 0.000000 15.825327 -15.804973 0.425122 70.394166 -12.895497 -8.473071 4.190967 20.509628 0.002816 1.678467 0.865480 0.012346 0.113391 -0.014097 -0.000000 0.000000 0.000000 0.000000 0.000000 0.000000 0.000000 
-0.251745 17.088745 -0.933962 -168.710007 77.728967 -169.409264 6.227817 -3.922137 -1.660433 0.798598 -4.430294 -2.806204 -5.799721 -4.378643 1.746363 8.788035 -18.003197 -10.105626 -3.134564 -0.216387 -0.613396 0.000000 0.000000 0.000000 2.702099 11.797156 -0.566458 -55.955633 -3.043683 7.724674 -1.005747 -71.053571 -0.017412 4.857824 -0.284546 -0.021642 -0.112406 0.248902 0.000000 0.000000 0.000000 0.000000 0.000000 0.000000 0.000000 15.894489 -15.432443 0.446791 70.322436 -12.039784 -8.319851 4.161083 20.387435 0.002875 1.403921 0.889815 0.010552 0.114046 -0.016367 -0.000000 0.000000 0.000000 0.000000 0.000000 0.000000 0.000000 
-0.107685 17.091392 -0.934870 -168.598705 76.910910 -169.345937 6.234006 -3.828926 -1.555959 0.780903 -4.333449 -2.803198 -5.850159 -4.283277 1.694308 8.851663 -17.688599 -10.057647 -3.164991 -0.219253 -0.602287 0.000000 0.000000 0.000000 2.537068 11.826493 -0.568718 -57.094215 -2.708420 8.158471 -1.043263 -70.449683 -0.016827 4.855272 -0.348990 -0.024143 -0.112152 0.243562 -0.000000 0.000000 0.000000 0.000000 0.000000 0.000000 0.000000 15.973795 -15.054557 0.462646 70.241563 -11.144359 -8.190050 4.130797 20.262615 0.002953 1.131318 0.930089 0.008759 0.114745 -0.018895 -0.000000 0.000000 0.000000 0.000000 0.000000 0.000000 0.000000 
0.033772 17.095308 -0.936046 -168.687016 76.057110 -169.464485 6.189554 -3.736076 -1.464291 0.752944 -4.234113 -2.799534 -5.901037 -4.185708 1.650960 8.909958 -17.377155 -10.006486 -3.195691 -0.222136 -0.590501 0.000000 0.000000 0.000000 2.349621 11.875330 -0.565029 -58.243626 -2.406132 8.574809 -1.089238 -69.661878 -0.016137 4.849818 -0.433831 -0.027547 -0.111900 0.237529 0.000000 0.000000 0.000000 0.000000 0.000000 0.000000 0.000000 16.061732 -14.685015 0.471358 70.141774 -10.201028 -8.056852 4.099618 20.134198 0.003063 0.852923 0.995223 0.006867 0.115553 -0.021664 -0.000000 0.000000 0.000000 0.000000 0.000000 0.000000 0.000000 
0.172571 17.100672 -0.937749 -168.940717 75.167116 -169.736224 6.096331 -3.643388 -1.381434 0.715153 -4.132066 -2.795427 -5.951134 -4.085869 1.613337 8.959821 -17.061652 -9.948388 -3.226701 -0.225090 -0.577016 0.000000 0.000000 0.000000 2.144999 11.929519 -0.554688 -59.409438 -2.120910 8.949611 -1.144464 -68.676162 -0.015365 4.846874 -0.540213 -0.031855 -0.111636 0.230754 0.000000 0.000000 0.000000 0.000000 0.000000 0.000000 0.000000 16.152173 -14.316440 0.473904 70.024689 -9.227714 -7.952784 4.067952 20.014486 0.003198 0.577209 1.081991 0.004775 0.116443 -0.024702 -0.000000 0.000000 0.000000 0.000000 0.000000 0.000000 0.000000 
0.308573 17.107544 -0.940205 -169.327306 74.242505 -170.135374 5.955907 -3.550474 -1.301384 0.668187 -4.026745 -2.789744 -5.998090 -3.983304 1.582303 9.000247 -16.746115 -9.884440 -3.256208 -0.227945 -0.562161 0.000000 0.000000 0.000000 1.928842 11.992035 -0.537649 -60.599146 -1.860644 9.268077 -1.210127 -67.467230 -0.014542 4.856641 -0.668345 -0.037167 -0.111459 0.223233 -0.000000 0.000000 0.000000 0.000000 0.000000 0.000000 0.000000 16.237818 -13.953344 0.470132 69.886118 -8.228294 -7.865307 4.035525 19.910959 0.003362 0.302996 1.193115 0.002384 0.117435 -0.027982 -0.000000 0.000000 0.000000 0.000000 0.000000 0.000000 0.000000 
0.441759 17.115868 -0.943697 -169.813414 73.285289 -170.634940 5.772703 -3.456605 -1.218815 0.613180 -3.917450 -2.782082 -6.039823 -3.877419 1.556522 9.028909 -16.428240 -9.813439 -3.282964 -0.230616 -0.545611 0.000000 0.000000 0.000000 1.705769 12.057808 -0.513483 -61.817006 -1.621123 9.508616 -1.286747 -66.019597 -0.013716 4.891649 -0.816459 -0.043584 -0.111441 0.214931 0.000000 0.000000 0.000000 0.000000 0.000000 0.000000 0.000000 16.309211 -13.593104 0.460723 69.725778 -7.216292 -7.796198 4.002303 19.836350 0.003550 0.034371 1.325823 -0.000606 0.118516 -0.031480 -0.000000 0.000000 0.000000 0.000000 0.000000 0.000000 0.000000 
0.572140 17.125443 -0.948495 -170.367261 72.299953 -171.208604 5.551062 -3.360633 -1.128340 0.551394 -3.803047 -2.770967 -6.073867 -3.767076 1.538751 9.045408 -16.113146 -9.738544 -3.304523 -0.232859 -0.528263 0.000000 0.000000 0.000000 1.480077 12.142362 -0.482265 -63.066411 -1.424929 9.665275 -1.375212 -64.307233 -0.012937 4.969297 -0.982644 -0.051207 -0.111783 0.205861 -0.000000 0.000000 0.000000 0.000000 0.000000 0.000000 0.000000 16.357641 -13.240608 0.444805 69.538204 -6.194855 -7.712650 3.967845 19.799315 0.003763 -0.231841 1.481292 -0.004295 0.119712 -0.035118 -0.000000 0.000000 0.000000 0.000000 0.000000 0.000000 0.000000 
0.699707 17.136052 -0.954843 -170.955468 71.291261 -171.827457 5.300362 -3.261239 -1.027878 0.484816 -3.682720 -2.757436 -6.098864 -3.651529 1.524426 9.045491 -15.792111 -9.655423 -3.320600 -0.234725 -0.508860 0.000000 0.000000 0.000000 1.251199 12.227206 -0.443460 -64.341404 -1.246554 9.707583 -1.474052 -62.339431 -0.012240 5.105414 -1.161173 -0.060337 -0.112457 0.195951 -0.000000 0.000000 0.000000 0.000000 0.000000 0.000000 0.000000 16.371289 -12.885744 0.424391 69.325342 -5.187005 -7.629830 3.932448 19.817753 0.003985 -0.484605 1.649650 -0.008483 0.120958 -0.038869 -0.000000 0.000000 0.000000 0.000000 0.000000 0.000000 0.000000 
